Adsworth-8PTG1XTdb.ufo
<glyph name="quotedbl" format="2">
  <advance width="1134"/>
  <unicode hex="0022"/>
  <outline>
    <contour>
      <point x="4" y="762" type="line"/>
      <point x="4" y="1500" type="line"/>
      <point x="577" y="1500" type="line"/>
      <point x="577" y="762" type="line"/>
    </contour>
    <contour>
      <point x="557" y="762" type="line"/>
      <point x="557" y="1500" type="line"/>
      <point x="1130" y="1500" type="line"/>
      <point x="1130" y="762" type="line"/>
    </contour>
  </outline>
</glyph>
<glyph name="dollar" format="2">
  <advance width="1275"/>
  <unicode hex="0024"/>
  <outline>
    <contour>
      <point x="674" y="394" type="line" smooth="yes"/>
      <point x="674.0" y="399.0"/>
      <point x="658" y="407"/>
      <point x="471" y="492" type="qcurve" smooth="yes"/>
      <point x="237" y="602"/>
      <point x="34" y="871"/>
      <point x="34" y="1058.0" type="qcurve" smooth="yes"/>
      <point x="34" y="1063.0" type="line" smooth="yes"/>
      <point x="34" y="1262.0"/>
      <point x="365" y="1521"/>
      <point x="607" y="1521.0" type="qcurve" smooth="yes"/>
      <point x="618" y="1521.0" type="line" smooth="yes"/>
      <point x="868" y="1521"/>
      <point x="1175.0" y="1304.0"/>
      <point x="1170" y="1099.0" type="qcurve" smooth="yes"/>
      <point x="1170" y="1056.0" type="line"/>
      <point x="614" y="1056.0" type="line"/>
      <point x="614.0" y="1165" type="line" smooth="yes"/>
      <point x="614.0" y="1140.0"/>
      <point x="604" y="1117"/>
      <point x="613.0" y="1117" type="qcurve" smooth="yes"/>
      <point x="594.0" y="1117" type="line" smooth="yes"/>
      <point x="603" y="1117"/>
      <point x="608.0" y="1102"/>
      <point x="608.0" y="1111" type="qcurve" smooth="yes"/>
      <point x="608.0" y="1079" type="line" smooth="yes"/>
      <point x="608" y="1087"/>
      <point x="625" y="1081"/>
      <point x="787" y="1019" type="qcurve" smooth="yes"/>
      <point x="963.0" y="951"/>
      <point x="1243.0" y="706.0"/>
      <point x="1243" y="488.0" type="qcurve" smooth="yes"/>
      <point x="1243" y="454.0" type="line" smooth="yes"/>
      <point x="1243.0" y="260.0"/>
      <point x="914" y="-33"/>
      <point x="637" y="-33.0" type="qcurve" smooth="yes"/>
      <point x="632" y="-33.0" type="line" smooth="yes"/>
      <point x="338" y="-33"/>
      <point x="36" y="221.0"/>
      <point x="34" y="396.0" type="qcurve" smooth="yes"/>
      <point x="34" y="496.0" type="line"/>
      <point x="567.0" y="494.0" type="line"/>
      <point x="567.0" y="401" type="line" smooth="yes"/>
      <point x="567.0" y="379.0"/>
      <point x="593" y="334"/>
      <point x="623" y="334" type="qcurve" smooth="yes"/>
      <point x="627" y="334" type="line" smooth="yes"/>
      <point x="653" y="334"/>
      <point x="674.0" y="359.0"/>
      <point x="674" y="363" type="qcurve" smooth="yes"/>
    </contour>
    <contour>
      <point x="423" y="-100" type="line"/>
      <point x="423" y="201" type="line"/>
      <point x="803" y="201" type="line"/>
      <point x="803" y="-100" type="line"/>
    </contour>
    <contour>
      <point x="433" y="1280" type="line"/>
      <point x="433" y="1593" type="line"/>
      <point x="813" y="1593" type="line"/>
      <point x="813" y="1280" type="line"/>
    </contour>
  </outline>
</glyph>
<glyph name="percent" format="2">
  <advance width="2279"/>
  <unicode hex="0025"/>
  <outline>
    <contour>
      <point x="506.0" y="569" type="line" smooth="yes"/>
      <point x="299.0" y="569"/>
      <point x="-13.0" y="829"/>
      <point x="-13.0" y="1036" type="qcurve" smooth="yes"/>
      <point x="-13.0" y="1068" type="line" smooth="yes"/>
      <point x="-13.0" y="1275"/>
      <point x="295.0" y="1546"/>
      <point x="503.0" y="1546" type="qcurve" smooth="yes"/>
      <point x="509.0" y="1546" type="line" smooth="yes"/>
      <point x="721.0" y="1546"/>
      <point x="1032.0" y="1275"/>
      <point x="1032.0" y="1068" type="qcurve" smooth="yes"/>
      <point x="1032.0" y="1036" type="line" smooth="yes"/>
      <point x="1032.0" y="829"/>
      <point x="726.0" y="569"/>
      <point x="513.0" y="569" type="qcurve" smooth="yes"/>
    </contour>
    <contour>
      <point x="513" y="1004" type="line" smooth="yes"/>
      <point x="536" y="1004"/>
      <point x="564" y="1030"/>
      <point x="564" y="1049" type="qcurve" smooth="yes"/>
      <point x="564" y="1053" type="line" smooth="yes"/>
      <point x="564" y="1074"/>
      <point x="537" y="1100"/>
      <point x="513" y="1100" type="qcurve" smooth="yes"/>
      <point x="511" y="1100" type="line" smooth="yes"/>
      <point x="490" y="1100"/>
      <point x="464" y="1074"/>
      <point x="464" y="1053" type="qcurve" smooth="yes"/>
      <point x="464" y="1049" type="line" smooth="yes"/>
      <point x="464" y="1030"/>
      <point x="490" y="1004"/>
      <point x="511" y="1004" type="qcurve" smooth="yes"/>
    </contour>
    <contour>
      <point x="1756.0" y="-35.0" type="line" smooth="yes"/>
      <point x="1549.0" y="-35.0"/>
      <point x="1247.0" y="225"/>
      <point x="1247.0" y="432" type="qcurve" smooth="yes"/>
      <point x="1247.0" y="464" type="line" smooth="yes"/>
      <point x="1247.0" y="671"/>
      <point x="1545.0" y="942"/>
      <point x="1753.0" y="942" type="qcurve" smooth="yes"/>
      <point x="1759.0" y="942" type="line" smooth="yes"/>
      <point x="1971.0" y="942"/>
      <point x="2292.0" y="671"/>
      <point x="2292.0" y="464" type="qcurve" smooth="yes"/>
      <point x="2292.0" y="432" type="line" smooth="yes"/>
      <point x="2292.0" y="225"/>
      <point x="1976.0" y="-35.0"/>
      <point x="1763.0" y="-35.0" type="qcurve" smooth="yes"/>
    </contour>
    <contour>
      <point x="1763" y="386" type="line" smooth="yes"/>
      <point x="1786" y="386"/>
      <point x="1814" y="412"/>
      <point x="1814" y="431" type="qcurve" smooth="yes"/>
      <point x="1814" y="435" type="line" smooth="yes"/>
      <point x="1814" y="456"/>
      <point x="1787" y="482"/>
      <point x="1763" y="482" type="qcurve" smooth="yes"/>
      <point x="1761" y="482" type="line" smooth="yes"/>
      <point x="1740" y="482"/>
      <point x="1714" y="456"/>
      <point x="1714" y="435" type="qcurve" smooth="yes"/>
      <point x="1714" y="431" type="line" smooth="yes"/>
      <point x="1714" y="412"/>
      <point x="1740" y="386"/>
      <point x="1761" y="386" type="qcurve" smooth="yes"/>
    </contour>
    <contour>
      <point x="562" y="0" type="line"/>
      <point x="1332" y="1500" type="line"/>
      <point x="1712" y="1500" type="line"/>
      <point x="952" y="0" type="line"/>
    </contour>
  </outline>
</glyph>
<glyph name="ampersand" format="2">
  <advance width="1431"/>
  <unicode hex="0026"/>
  <outline>
    <contour>
      <point x="804" y="716" type="line"/>
      <point x="1375" y="931" type="line"/>
      <point x="1496" y="636" type="line"/>
      <point x="910" y="457" type="line"/>
    </contour>
    <contour>
      <point x="820" y="677" type="line"/>
      <point x="753" y="677.0" type="line" smooth="yes"/>
      <point x="697.0" y="677.0"/>
      <point x="619" y="600"/>
      <point x="619.0" y="555.0" type="qcurve" smooth="yes"/>
      <point x="619.0" y="486" type="line" smooth="yes"/>
      <point x="619.0" y="408.0"/>
      <point x="706" y="315"/>
      <point x="760" y="315.0" type="qcurve" smooth="yes"/>
      <point x="807.0" y="315" type="line" smooth="yes"/>
      <point x="845" y="315"/>
      <point x="908.0" y="357.0"/>
      <point x="908.0" y="397" type="qcurve" smooth="yes"/>
      <point x="908.0" y="445.0" type="line" smooth="yes"/>
      <point x="908" y="463"/>
      <point x="906" y="515.0"/>
      <point x="906" y="532.0" type="qcurve"/>
      <point x="1337" y="621.0" type="line"/>
      <point x="1359" y="594.0"/>
      <point x="1407" y="448"/>
      <point x="1407" y="402.0" type="qcurve" smooth="yes"/>
      <point x="1407" y="389.0" type="line" smooth="yes"/>
      <point x="1407" y="238"/>
      <point x="1106.0" y="-36.0"/>
      <point x="797" y="-36.0" type="qcurve" smooth="yes"/>
      <point x="729" y="-36.0" type="line" smooth="yes"/>
      <point x="392" y="-36"/>
      <point x="50" y="212"/>
      <point x="50.0" y="401.0" type="qcurve" smooth="yes"/>
      <point x="50.0" y="431.0" type="line" smooth="yes"/>
      <point x="50" y="555"/>
      <point x="208" y="760.0"/>
      <point x="322" y="806.0" type="qcurve"/>
      <point x="225" y="846.0"/>
      <point x="102" y="1013"/>
      <point x="102.0" y="1112.0" type="qcurve" smooth="yes"/>
      <point x="102.0" y="1138.0" type="line" smooth="yes"/>
      <point x="102" y="1305"/>
      <point x="403" y="1523.0"/>
      <point x="593" y="1523.0" type="qcurve" smooth="yes"/>
      <point x="599" y="1523.0" type="line" smooth="yes"/>
      <point x="803" y="1523.0"/>
      <point x="1092" y="1327"/>
      <point x="1095" y="1149.0" type="qcurve" smooth="yes"/>
      <point x="1096" y="1070.0" type="line"/>
      <point x="723" y="1070.0" type="line"/>
      <point x="723.0" y="1157" type="line" smooth="yes"/>
      <point x="723.0" y="1164.0"/>
      <point x="712" y="1171"/>
      <point x="698.0" y="1171" type="qcurve" smooth="yes"/>
      <point x="613" y="1171.0" type="line" smooth="yes"/>
      <point x="590" y="1171"/>
      <point x="572.0" y="1150.0"/>
      <point x="572.0" y="1129.0" type="qcurve" smooth="yes"/>
      <point x="572" y="1046.0" type="line" smooth="yes"/>
      <point x="572" y="1013"/>
      <point x="598" y="982"/>
      <point x="617" y="982.0" type="qcurve" smooth="yes"/>
      <point x="796.0" y="981" type="line"/>
    </contour>
  </outline>
</glyph>
<glyph name="quotesingle" format="2">
  <advance width="660"/>
  <unicode hex="0027"/>
  <outline>
    <contour>
      <point x="54" y="742" type="line"/>
      <point x="54" y="1500" type="line"/>
      <point x="606" y="1500" type="line"/>
      <point x="606" y="742" type="line"/>
    </contour>
  </outline>
</glyph>
<glyph name="parenright" format="2">
  <advance width="748"/>
  <unicode hex="0029"/>
  <outline>
    <contour>
      <point x="323.0" y="-383.0" type="qcurve"/>
      <point x="-63.0" y="-130.0" type="line"/>
      <point x="133.0" y="220.0"/>
      <point x="150.0" y="964.0"/>
      <point x="-45.0" y="1330.0" type="qcurve"/>
      <point x="339.0" y="1607.0" type="line"/>
      <point x="730.0" y="1133.0"/>
      <point x="731.0" y="95.0"/>
    </contour>
  </outline>
</glyph>
<glyph name="asterisk" format="2">
  <advance width="1217"/>
  <unicode hex="002A"/>
  <outline>
    <contour>
      <point x="640.0" y="687" type="line"/>
      <point x="533" y="431" type="line"/>
      <point x="125" y="733" type="line"/>
      <point x="285" y="929" type="line"/>
      <point x="55" y="932" type="line"/>
      <point x="219" y="1430" type="line"/>
      <point x="416" y="1317" type="line"/>
      <point x="384" y="1554.0" type="line"/>
      <point x="896" y="1554.0" type="line"/>
      <point x="861" y="1317" type="line"/>
      <point x="1062" y="1427" type="line"/>
      <point x="1226" y="933" type="line"/>
      <point x="995" y="929" type="line"/>
      <point x="1158" y="733" type="line"/>
      <point x="746" y="431" type="line"/>
    </contour>
  </outline>
</glyph>
<glyph name="plus" format="2">
  <advance width="1500"/>
  <unicode hex="002B"/>
  <outline>
    <contour>
      <point x="1364" y="490" type="line"/>
      <point x="136" y="500" type="line"/>
      <point x="136" y="1025" type="line"/>
      <point x="1364" y="1015" type="line"/>
    </contour>
    <contour>
      <point x="1018.0" y="1372.0" type="line"/>
      <point x="1018.0" y="152.0" type="line"/>
      <point x="473.0" y="152.0" type="line"/>
      <point x="473.0" y="1372.0" type="line"/>
    </contour>
  </outline>
</glyph>
<glyph name="period" format="2">
  <advance width="760"/>
  <unicode hex="002E"/>
  <outline>
    <contour>
      <point x="375" y="-40" type="line" smooth="yes"/>
      <point x="513" y="-40"/>
      <point x="688" y="124"/>
      <point x="688" y="246" type="qcurve" smooth="yes"/>
      <point x="688" y="263" type="line" smooth="yes"/>
      <point x="688" y="383"/>
      <point x="517" y="550"/>
      <point x="375" y="550" type="qcurve" smooth="yes"/>
      <point x="370" y="550" type="line" smooth="yes"/>
      <point x="238" y="550"/>
      <point x="72" y="383"/>
      <point x="72" y="263" type="qcurve" smooth="yes"/>
      <point x="72" y="246" type="line" smooth="yes"/>
      <point x="72" y="122"/>
      <point x="236" y="-40"/>
      <point x="370" y="-40" type="qcurve" smooth="yes"/>
    </contour>
  </outline>
</glyph>
<glyph name="zero" format="2">
  <advance width="1308"/>
  <unicode hex="0030"/>
  <outline>
    <contour>
      <point x="653" y="-25" type="line" smooth="yes"/>
      <point x="385" y="-25"/>
      <point x="46" y="402"/>
      <point x="46" y="724" type="qcurve" smooth="yes"/>
      <point x="46" y="775" type="line" smooth="yes"/>
      <point x="46" y="1097"/>
      <point x="381" y="1524"/>
      <point x="649" y="1524" type="qcurve" smooth="yes"/>
      <point x="660" y="1524" type="line" smooth="yes"/>
      <point x="934" y="1524"/>
      <point x="1262" y="1097"/>
      <point x="1262" y="775" type="qcurve" smooth="yes"/>
      <point x="1262" y="724" type="line" smooth="yes"/>
      <point x="1262" y="402"/>
      <point x="938" y="-25"/>
      <point x="664" y="-25" type="qcurve" smooth="yes"/>
    </contour>
    <contour>
      <point x="653" y="333" type="line" smooth="yes"/>
      <point x="671" y="333"/>
      <point x="728" y="368"/>
      <point x="728" y="527" type="qcurve" smooth="yes"/>
      <point x="728" y="958" type="line" smooth="yes"/>
      <point x="728" y="1087"/>
      <point x="695" y="1136"/>
      <point x="658" y="1136" type="qcurve" smooth="yes"/>
      <point x="651" y="1136" type="line" smooth="yes"/>
      <point x="616" y="1136"/>
      <point x="585" y="1087"/>
      <point x="585" y="958" type="qcurve" smooth="yes"/>
      <point x="585" y="527" type="line" smooth="yes"/>
      <point x="585" y="368"/>
      <point x="631" y="333"/>
      <point x="647" y="333" type="qcurve" smooth="yes"/>
    </contour>
  </outline>
</glyph>
<glyph name="one" format="2">
  <advance width="685"/>
  <unicode hex="0031"/>
  <outline>
    <contour>
      <point x="72" y="0" type="line"/>
      <point x="72" y="1500" type="line"/>
      <point x="613" y="1500" type="line"/>
      <point x="613" y="0" type="line"/>
    </contour>
  </outline>
</glyph>
<glyph name="two" format="2">
  <advance width="996"/>
  <unicode hex="0032"/>
  <outline>
    <contour>
      <point x="985" y="0" type="line"/>
      <point x="5" y="0" type="line"/>
      <point x="5.0" y="334" type="line"/>
      <point x="299" y="758" type="line" smooth="yes"/>
      <point x="381" y="877"/>
      <point x="509" y="1076.0"/>
      <point x="509.0" y="1115" type="qcurve" smooth="yes"/>
      <point x="509.0" y="1131" type="line" smooth="yes"/>
      <point x="509" y="1153.0"/>
      <point x="487" y="1180.0"/>
      <point x="465" y="1180.0" type="qcurve" smooth="yes"/>
      <point x="461" y="1180.0" type="line" smooth="yes"/>
      <point x="438" y="1180.0"/>
      <point x="421" y="1145.0"/>
      <point x="422" y="1107.0" type="qcurve" smooth="yes"/>
      <point x="423" y="998.0" type="line"/>
      <point x="9" y="1000" type="line"/>
      <point x="9" y="1139" type="line" smooth="yes"/>
      <point x="9" y="1306"/>
      <point x="276.0" y="1527.0"/>
      <point x="473" y="1527" type="qcurve" smooth="yes"/>
      <point x="492" y="1527" type="line" smooth="yes"/>
      <point x="704.0" y="1527.0"/>
      <point x="978.0" y="1338.0"/>
      <point x="978" y="1178.0" type="qcurve" smooth="yes"/>
      <point x="978" y="1166.0" type="line" smooth="yes"/>
      <point x="978.0" y="1039.0"/>
      <point x="925" y="880"/>
      <point x="872" y="808.0" type="qcurve" smooth="yes"/>
      <point x="596" y="435.0" type="line"/>
      <point x="985" y="435" type="line"/>
    </contour>
  </outline>
</glyph>
<glyph name="three" format="2">
  <advance width="1048"/>
  <unicode hex="0033"/>
  <outline>
    <contour>
      <point x="434" y="547.0" type="qcurve" smooth="yes"/>
      <point x="240" y="548" type="line"/>
      <point x="240" y="934" type="line"/>
      <point x="393" y="937" type="line" smooth="yes"/>
      <point x="448" y="938"/>
      <point x="481.0" y="971.0"/>
      <point x="481" y="1025.0" type="qcurve" smooth="yes"/>
      <point x="481" y="1062.0" type="line" smooth="yes"/>
      <point x="481.0" y="1097.0"/>
      <point x="502" y="1125.0"/>
      <point x="510" y="1125.0" type="qcurve"/>
      <point x="510" y="1125.0" type="line"/>
      <point x="510" y="1125.0"/>
      <point x="522.0" y="1090"/>
      <point x="526" y="1073.0" type="qcurve" smooth="yes"/>
      <point x="527" y="1021.0" type="line"/>
      <point x="21" y="1045.0" type="line"/>
      <point x="22" y="1147.0" type="line" smooth="yes"/>
      <point x="19" y="1311"/>
      <point x="270" y="1524.0"/>
      <point x="479" y="1524.0" type="qcurve"/>
      <point x="499" y="1524.0" type="line"/>
      <point x="723" y="1524.0"/>
      <point x="1009" y="1319"/>
      <point x="1009" y="1174.0" type="qcurve" smooth="yes"/>
      <point x="1009" y="1137.0" type="line" smooth="yes"/>
      <point x="1009.0" y="1013.0"/>
      <point x="842" y="833.0"/>
      <point x="780" y="812.0" type="qcurve"/>
      <point x="875" y="787.0"/>
      <point x="1055.0" y="595.0"/>
      <point x="1055" y="430.0" type="qcurve" smooth="yes"/>
      <point x="1055" y="420.0" type="line" smooth="yes"/>
      <point x="1055.0" y="241.0"/>
      <point x="752" y="-25.0"/>
      <point x="513" y="-25.0" type="qcurve"/>
      <point x="507" y="-25.0" type="line"/>
      <point x="283" y="-25.0"/>
      <point x="3" y="180.0"/>
      <point x="-1" y="337.0" type="qcurve" smooth="yes"/>
      <point x="-3" y="515.0" type="line"/>
      <point x="497" y="515.0" type="line"/>
      <point x="496.0" y="390" type="line" smooth="yes"/>
      <point x="494" y="359"/>
      <point x="464.0" y="316"/>
      <point x="487.0" y="316" type="qcurve"/>
      <point x="483.0" y="316" type="line"/>
      <point x="501.0" y="316"/>
      <point x="485.0" y="373.0"/>
      <point x="485.0" y="432" type="qcurve" smooth="yes"/>
      <point x="485" y="430.0" type="line" smooth="yes"/>
      <point x="485.0" y="513.0"/>
      <point x="467" y="543"/>
    </contour>
  </outline>
</glyph>
<glyph name="four" format="2">
  <advance width="1146"/>
  <unicode hex="0034"/>
  <outline>
    <contour>
      <point x="527" y="0" type="line"/>
      <point x="547" y="1504" type="line"/>
      <point x="1047" y="1501" type="line"/>
      <point x="1047" y="2" type="line"/>
    </contour>
    <contour>
      <point x="1123" y="597" type="line"/>
      <point x="1123" y="198" type="line"/>
      <point x="29" y="198" type="line"/>
      <point x="-17" y="670" type="line"/>
      <point x="496" y="1492" type="line"/>
      <point x="794" y="1329" type="line"/>
      <point x="326" y="597" type="line"/>
    </contour>
  </outline>
</glyph>
<glyph name="five" format="2">
  <advance width="1046"/>
  <unicode hex="0035"/>
  <outline>
    <contour>
      <point x="606" y="1059" type="line" smooth="yes"/>
      <point x="863.0" y="1059.0"/>
      <point x="1038.0" y="768.0"/>
      <point x="1038" y="530" type="qcurve" smooth="yes"/>
      <point x="1038" y="500" type="line" smooth="yes"/>
      <point x="1038.0" y="269"/>
      <point x="736.0" y="-25.0"/>
      <point x="521" y="-25" type="qcurve" smooth="yes"/>
      <point x="500" y="-25" type="line" smooth="yes"/>
      <point x="287" y="-25"/>
      <point x="6" y="194"/>
      <point x="3" y="352" type="qcurve" smooth="yes"/>
      <point x="1" y="528" type="line"/>
      <point x="554" y="530.0" type="line"/>
      <point x="553.0" y="375" type="line" smooth="yes"/>
      <point x="549" y="358"/>
      <point x="539.0" y="331"/>
      <point x="525.0" y="331" type="qcurve" smooth="yes"/>
      <point x="522.0" y="331" type="line" smooth="yes"/>
      <point x="505.0" y="331.0"/>
      <point x="494.0" y="359.0"/>
      <point x="494.0" y="422" type="qcurve" smooth="yes"/>
      <point x="494.0" y="618" type="line" smooth="yes"/>
      <point x="494.0" y="699.0"/>
      <point x="508.0" y="699.0"/>
      <point x="529.0" y="699" type="qcurve" smooth="yes"/>
      <point x="501.0" y="699" type="line" smooth="yes"/>
      <point x="494.0" y="699.0"/>
      <point x="496.0" y="629"/>
      <point x="516.0" y="600" type="qcurve"/>
      <point x="3" y="602" type="line"/>
      <point x="26" y="1500" type="line"/>
      <point x="945" y="1500" type="line"/>
      <point x="945" y="1085" type="line"/>
      <point x="407" y="1085" type="line"/>
      <point x="392" y="993" type="line"/>
      <point x="414" y="1021"/>
      <point x="521.0" y="1059.0"/>
      <point x="558" y="1059" type="qcurve" smooth="yes"/>
    </contour>
  </outline>
</glyph>
<glyph name="six" format="2">
  <advance width="1187"/>
  <unicode hex="0036"/>
  <outline>
    <contour>
      <point x="625.0" y="501" type="qcurve"/>
      <point x="625.0" y="407" type="line" smooth="yes"/>
      <point x="625.0" y="380"/>
      <point x="589.0" y="338.0"/>
      <point x="607.0" y="338.0" type="qcurve" smooth="yes"/>
      <point x="607.0" y="338.0" type="line" smooth="yes"/>
      <point x="603.0" y="338.0"/>
      <point x="599" y="376"/>
      <point x="599.0" y="400" type="qcurve" smooth="yes"/>
      <point x="599.0" y="558" type="line" smooth="yes"/>
      <point x="599.0" y="597"/>
      <point x="587.0" y="634"/>
      <point x="601.0" y="634" type="qcurve" smooth="yes"/>
      <point x="600.0" y="634" type="line" smooth="yes"/>
      <point x="594.0" y="634"/>
      <point x="596" y="585"/>
      <point x="624.0" y="565" type="qcurve" smooth="yes"/>
      <point x="625.0" y="495" type="line"/>
      <point x="412" y="505.0" type="line"/>
      <point x="412" y="519.0" type="line" smooth="yes"/>
      <point x="412" y="708.0"/>
      <point x="583" y="960.0"/>
      <point x="755" y="960.0" type="qcurve" smooth="yes"/>
      <point x="761" y="960.0" type="line" smooth="yes"/>
      <point x="955" y="960.0"/>
      <point x="1187" y="695.0"/>
      <point x="1187" y="489.0" type="qcurve" smooth="yes"/>
      <point x="1187" y="454.0" type="line" smooth="yes"/>
      <point x="1187" y="255.0"/>
      <point x="877" y="-25.0"/>
      <point x="637" y="-25.0" type="qcurve" smooth="yes"/>
      <point x="630" y="-25.0" type="line" smooth="yes"/>
      <point x="374" y="-25.0"/>
      <point x="66" y="268"/>
      <point x="66" y="510.0" type="qcurve" smooth="yes"/>
      <point x="66.0" y="724" type="line" smooth="yes"/>
      <point x="66.0" y="1096"/>
      <point x="614.0" y="1531"/>
      <point x="942.0" y="1540" type="qcurve" smooth="yes"/>
      <point x="979" y="1540" type="line"/>
      <point x="979" y="1095" type="line"/>
      <point x="947" y="1095" type="line" smooth="yes"/>
      <point x="674" y="1095"/>
      <point x="606.0" y="733"/>
    </contour>
  </outline>
</glyph>
<glyph name="seven" format="2">
  <advance width="926"/>
  <unicode hex="0037"/>
  <outline>
    <contour>
      <point x="-18" y="1500" type="line"/>
      <point x="940" y="1500" type="line"/>
      <point x="940" y="1126" type="line"/>
      <point x="592" y="0" type="line"/>
      <point x="52" y="0" type="line"/>
      <point x="424" y="1085" type="line"/>
      <point x="-18" y="1085" type="line"/>
    </contour>
  </outline>
</glyph>
<glyph name="eight" format="2">
  <advance width="1176"/>
  <unicode hex="0038"/>
  <outline>
    <contour>
      <point x="580" y="-27" type="line" smooth="yes"/>
      <point x="352" y="-27"/>
      <point x="24" y="218"/>
      <point x="24" y="413" type="qcurve" smooth="yes"/>
      <point x="24" y="444" type="line" smooth="yes"/>
      <point x="24" y="641"/>
      <point x="348" y="876"/>
      <point x="575" y="876" type="qcurve" smooth="yes"/>
      <point x="583" y="876" type="line" smooth="yes"/>
      <point x="816" y="876"/>
      <point x="1152" y="641"/>
      <point x="1152" y="444" type="qcurve" smooth="yes"/>
      <point x="1152" y="413" type="line" smooth="yes"/>
      <point x="1152" y="218"/>
      <point x="821" y="-27"/>
      <point x="587" y="-27" type="qcurve" smooth="yes"/>
    </contour>
    <contour>
      <point x="594.0" y="314.0" type="line" smooth="yes"/>
      <point x="638" y="314"/>
      <point x="671" y="349"/>
      <point x="671.0" y="385" type="qcurve" smooth="yes"/>
      <point x="671.0" y="532" type="line" smooth="yes"/>
      <point x="671" y="570"/>
      <point x="638" y="616"/>
      <point x="594.0" y="616.0" type="qcurve" smooth="yes"/>
      <point x="577.0" y="616.0" type="line" smooth="yes"/>
      <point x="532" y="616"/>
      <point x="500" y="570"/>
      <point x="500" y="532" type="qcurve" smooth="yes"/>
      <point x="500.0" y="385" type="line" smooth="yes"/>
      <point x="500" y="349"/>
      <point x="531" y="314"/>
      <point x="577.0" y="314.0" type="qcurve" smooth="yes"/>
    </contour>
    <contour>
      <point x="580.0" y="675" type="line" smooth="yes"/>
      <point x="377.0" y="675"/>
      <point x="60" y="901"/>
      <point x="60.0" y="1080" type="qcurve" smooth="yes"/>
      <point x="60.0" y="1108" type="line" smooth="yes"/>
      <point x="60" y="1288"/>
      <point x="342.0" y="1523.0"/>
      <point x="575.0" y="1523" type="qcurve" smooth="yes"/>
      <point x="583.0" y="1523" type="line" smooth="yes"/>
      <point x="822.0" y="1523.0"/>
      <point x="1116" y="1288"/>
      <point x="1116.0" y="1108" type="qcurve" smooth="yes"/>
      <point x="1116.0" y="1080" type="line" smooth="yes"/>
      <point x="1116" y="901"/>
      <point x="795.0" y="675"/>
      <point x="588.0" y="675" type="qcurve" smooth="yes"/>
    </contour>
    <contour>
      <point x="590.0" y="896.0" type="line" smooth="yes"/>
      <point x="633" y="896"/>
      <point x="670.0" y="938.0"/>
      <point x="670.0" y="964" type="qcurve" smooth="yes"/>
      <point x="670.0" y="1092" type="line" smooth="yes"/>
      <point x="670" y="1118"/>
      <point x="634" y="1151"/>
      <point x="590.0" y="1151.0" type="qcurve" smooth="yes"/>
      <point x="581.0" y="1151.0" type="line" smooth="yes"/>
      <point x="541" y="1151"/>
      <point x="505" y="1118"/>
      <point x="505" y="1092" type="qcurve" smooth="yes"/>
      <point x="505.0" y="964" type="line" smooth="yes"/>
      <point x="505.0" y="938.0"/>
      <point x="541" y="896"/>
      <point x="581.0" y="896.0" type="qcurve" smooth="yes"/>
    </contour>
  </outline>
</glyph>
<glyph name="nine" format="2">
  <advance width="1187"/>
  <unicode hex="0039"/>
  <outline>
    <contour>
      <point x="653.0" y="973.0" type="qcurve" smooth="yes"/>
      <point x="651.0" y="1068.0" type="line" smooth="yes"/>
      <point x="650" y="1105"/>
      <point x="621" y="1157"/>
      <point x="587.0" y="1157.0" type="qcurve" smooth="yes"/>
      <point x="557.0" y="1157.0" type="line" smooth="yes"/>
      <point x="538" y="1157"/>
      <point x="507" y="1124"/>
      <point x="507.0" y="1078.0" type="qcurve" smooth="yes"/>
      <point x="507.0" y="916.0" type="line" smooth="yes"/>
      <point x="507" y="877"/>
      <point x="537" y="840"/>
      <point x="560.0" y="840.0" type="qcurve" smooth="yes"/>
      <point x="574.0" y="840.0" type="line" smooth="yes"/>
      <point x="610" y="840"/>
      <point x="653.0" y="907.0"/>
      <point x="653.0" y="957.0" type="qcurve" smooth="yes"/>
      <point x="653.0" y="979.0" type="line"/>
      <point x="795.0" y="969.0" type="line"/>
      <point x="795.0" y="955.0" type="line" smooth="yes"/>
      <point x="795" y="766"/>
      <point x="624.0" y="539.0"/>
      <point x="452.0" y="539.0" type="qcurve" smooth="yes"/>
      <point x="446.0" y="539.0" type="line" smooth="yes"/>
      <point x="252.0" y="539.0"/>
      <point x="20.0" y="804.0"/>
      <point x="20.0" y="1010.0" type="qcurve" smooth="yes"/>
      <point x="20.0" y="1045.0" type="line" smooth="yes"/>
      <point x="20.0" y="1244.0"/>
      <point x="330.0" y="1524.0"/>
      <point x="570.0" y="1524.0" type="qcurve" smooth="yes"/>
      <point x="577.0" y="1524.0" type="line" smooth="yes"/>
      <point x="833.0" y="1524.0"/>
      <point x="1141.0" y="1231.0"/>
      <point x="1141.0" y="937.0" type="qcurve" smooth="yes"/>
      <point x="1141.0" y="852.0" type="line" smooth="yes"/>
      <point x="1141.0" y="429.0"/>
      <point x="593.0" y="-32.0"/>
      <point x="265.0" y="-41.0" type="qcurve" smooth="yes"/>
      <point x="228.0" y="-41.0" type="line"/>
      <point x="228.0" y="384.0" type="line"/>
      <point x="260.0" y="384.0" type="line" smooth="yes"/>
      <point x="521" y="384"/>
      <point x="658" y="740"/>
    </contour>
  </outline>
</glyph>
<glyph name="colon" format="2">
  <advance width="760"/>
  <unicode hex="003A"/>
  <outline>
    <contour>
      <point x="377" y="-32.0" type="line" smooth="yes"/>
      <point x="504" y="-32.0"/>
      <point x="664" y="123"/>
      <point x="664" y="237.0" type="qcurve" smooth="yes"/>
      <point x="664" y="253" type="line" smooth="yes"/>
      <point x="664" y="366"/>
      <point x="507" y="524"/>
      <point x="377" y="524" type="qcurve" smooth="yes"/>
      <point x="372" y="524" type="line" smooth="yes"/>
      <point x="252" y="524"/>
      <point x="99" y="366"/>
      <point x="99" y="253" type="qcurve" smooth="yes"/>
      <point x="99" y="237.0" type="line" smooth="yes"/>
      <point x="99" y="120"/>
      <point x="249" y="-32.0"/>
      <point x="372" y="-32.0" type="qcurve" smooth="yes"/>
    </contour>
    <contour>
      <point x="375" y="524.0" type="line" smooth="yes"/>
      <point x="502" y="524.0"/>
      <point x="663" y="679"/>
      <point x="663" y="793" type="qcurve" smooth="yes"/>
      <point x="663" y="809" type="line" smooth="yes"/>
      <point x="663" y="922"/>
      <point x="505" y="1080"/>
      <point x="375" y="1080" type="qcurve" smooth="yes"/>
      <point x="370" y="1080" type="line" smooth="yes"/>
      <point x="250" y="1080"/>
      <point x="97" y="922"/>
      <point x="97" y="809" type="qcurve" smooth="yes"/>
      <point x="97" y="793" type="line" smooth="yes"/>
      <point x="97" y="676"/>
      <point x="247" y="524.0"/>
      <point x="370" y="524.0" type="qcurve" smooth="yes"/>
    </contour>
  </outline>
</glyph>
<glyph name="less" format="2">
  <advance width="1500"/>
  <unicode hex="003C"/>
  <outline>
    <contour>
      <point x="168.0" y="493.0" type="line"/>
      <point x="168.0" y="963.0" type="line"/>
      <point x="1288.0" y="1366.0" type="line"/>
      <point x="1293.0" y="875.0" type="line"/>
      <point x="861.0" y="743.0" type="line"/>
      <point x="1293.0" y="623.0" type="line"/>
      <point x="1288.0" y="90.0" type="line"/>
    </contour>
  </outline>
</glyph>
<glyph name="greater" format="2">
  <advance width="1500"/>
  <unicode hex="003E"/>
  <outline>
    <contour>
      <point x="1332.0" y="939.0" type="line"/>
      <point x="1332.0" y="469.0" type="line"/>
      <point x="212.0" y="70.0" type="line"/>
      <point x="207.0" y="583.0" type="line"/>
      <point x="639.0" y="699.0" type="line"/>
      <point x="207.0" y="835.0" type="line"/>
      <point x="212.0" y="1346.0" type="line"/>
    </contour>
  </outline>
</glyph>
<glyph name="A" format="2">
  <advance width="1401"/>
  <unicode hex="0041"/>
  <outline>
    <contour>
      <point x="1151" y="154" type="line"/>
      <point x="281" y="154" type="line"/>
      <point x="281" y="495" type="line"/>
      <point x="1151" y="495" type="line"/>
    </contour>
    <contour>
      <point x="1001" y="1500" type="line"/>
      <point x="1461" y="0" type="line"/>
      <point x="888" y="0.0" type="line"/>
      <point x="681" y="781" type="line"/>
      <point x="659" y="781" type="line"/>
      <point x="467" y="0.0" type="line"/>
      <point x="-60" y="0" type="line"/>
      <point x="420" y="1500" type="line"/>
    </contour>
  </outline>
</glyph>
<glyph name="C" format="2">
  <advance width="1483"/>
  <unicode hex="0043"/>
  <outline>
    <contour>
      <point x="815.0" y="396" type="line" smooth="yes"/>
      <point x="858.0" y="396.0"/>
      <point x="887" y="470"/>
      <point x="886" y="564" type="qcurve" smooth="yes"/>
      <point x="886" y="652.0" type="line"/>
      <point x="1461.0" y="652.0" type="line"/>
      <point x="1458.0" y="500.0" type="line" smooth="yes"/>
      <point x="1454" y="275"/>
      <point x="1139" y="-32.0"/>
      <point x="807" y="-32.0" type="qcurve" smooth="yes"/>
      <point x="796" y="-32.0" type="line" smooth="yes"/>
      <point x="477" y="-32.0"/>
      <point x="52" y="381"/>
      <point x="52" y="724.0" type="qcurve" smooth="yes"/>
      <point x="52" y="775.0" type="line" smooth="yes"/>
      <point x="52" y="1119"/>
      <point x="473" y="1530.0"/>
      <point x="789" y="1530.0" type="qcurve" smooth="yes"/>
      <point x="802" y="1530.0" type="line" smooth="yes"/>
      <point x="1097" y="1530.0"/>
      <point x="1443" y="1234"/>
      <point x="1458" y="979.0" type="qcurve" smooth="yes"/>
      <point x="1466" y="847.0" type="line"/>
      <point x="880" y="847.0" type="line"/>
      <point x="880.0" y="937" type="line" smooth="yes"/>
      <point x="880" y="1026"/>
      <point x="841" y="1085"/>
      <point x="813" y="1085.0" type="qcurve" smooth="yes"/>
      <point x="795.0" y="1085" type="line" smooth="yes"/>
      <point x="766.0" y="1085.0"/>
      <point x="734.0" y="1013.0"/>
      <point x="734.0" y="890" type="qcurve" smooth="yes"/>
      <point x="734.0" y="617" type="line" smooth="yes"/>
      <point x="734" y="500"/>
      <point x="756" y="396"/>
      <point x="801.0" y="396" type="qcurve" smooth="yes"/>
    </contour>
  </outline>
</glyph>
<glyph name="D" format="2">
  <advance width="1605"/>
  <unicode hex="0044"/>
  <outline>
    <contour>
      <point x="105" y="0" type="line"/>
      <point x="105" y="1500" type="line"/>
      <point x="726" y="1500" type="line"/>
      <point x="726" y="0" type="line"/>
    </contour>
    <contour>
      <point x="811.0" y="406" type="line" smooth="yes"/>
      <point x="870" y="406"/>
      <point x="891.0" y="575"/>
      <point x="891.0" y="733" type="qcurve" smooth="yes"/>
      <point x="891.0" y="759" type="line" smooth="yes"/>
      <point x="891.0" y="915"/>
      <point x="850" y="1084.0"/>
      <point x="771" y="1084.0" type="qcurve" smooth="yes"/>
      <point x="561.0" y="1084" type="line"/>
      <point x="561.0" y="1500.0" type="line"/>
      <point x="870" y="1500.0" type="line" smooth="yes"/>
      <point x="1159" y="1500.0"/>
      <point x="1553.0" y="1097.0"/>
      <point x="1553" y="775.0" type="qcurve" smooth="yes"/>
      <point x="1553" y="724.0" type="line" smooth="yes"/>
      <point x="1553" y="392"/>
      <point x="1165.0" y="0.0"/>
      <point x="866" y="0.0" type="qcurve" smooth="yes"/>
      <point x="561.0" y="0.0" type="line"/>
      <point x="561.0" y="406" type="line"/>
    </contour>
  </outline>
</glyph>
<glyph name="E" format="2">
  <advance width="1200"/>
  <unicode hex="0045"/>
  <outline>
    <contour>
      <point x="134" y="0" type="line"/>
      <point x="134" y="1500" type="line"/>
      <point x="770" y="1500" type="line"/>
      <point x="770" y="0" type="line"/>
    </contour>
    <contour>
      <point x="1140" y="565" type="line"/>
      <point x="430" y="565" type="line"/>
      <point x="430" y="1010" type="line"/>
      <point x="1140" y="1010" type="line"/>
    </contour>
    <contour>
      <point x="1200" y="1055" type="line"/>
      <point x="430" y="1055" type="line"/>
      <point x="430" y="1500" type="line"/>
      <point x="1200" y="1500" type="line"/>
    </contour>
    <contour>
      <point x="1200" y="0" type="line"/>
      <point x="430" y="0" type="line"/>
      <point x="430" y="445" type="line"/>
      <point x="1200" y="445" type="line"/>
    </contour>
  </outline>
</glyph>
<glyph name="G" format="2">
  <advance width="1534"/>
  <unicode hex="0047"/>
  <outline>
    <contour>
      <point x="855" y="336.0" type="line" smooth="yes"/>
      <point x="895.0" y="336.0"/>
      <point x="947.0" y="380"/>
      <point x="947" y="435.0" type="qcurve" smooth="yes"/>
      <point x="948.0" y="499.0" type="line"/>
      <point x="828" y="499.0" type="line"/>
      <point x="828" y="850.0" type="line"/>
      <point x="1501" y="850.0" type="line"/>
      <point x="1495.0" y="540.0" type="line" smooth="yes"/>
      <point x="1490" y="270"/>
      <point x="1154" y="-32"/>
      <point x="837" y="-32.0" type="qcurve" smooth="yes"/>
      <point x="825" y="-32.0" type="line" smooth="yes"/>
      <point x="489" y="-32"/>
      <point x="52" y="383"/>
      <point x="52" y="724.0" type="qcurve" smooth="yes"/>
      <point x="52" y="775.0" type="line" smooth="yes"/>
      <point x="52" y="1131"/>
      <point x="508" y="1530"/>
      <point x="807" y="1530.0" type="qcurve" smooth="yes"/>
      <point x="819" y="1530.0" type="line" smooth="yes"/>
      <point x="1112" y="1530"/>
      <point x="1451" y="1250"/>
      <point x="1457" y="1018.0" type="qcurve" smooth="yes"/>
      <point x="1460" y="945.0" type="line"/>
      <point x="891" y="945.0" type="line"/>
      <point x="889.0" y="1009" type="line" smooth="yes"/>
      <point x="887" y="1064"/>
      <point x="848" y="1130"/>
      <point x="823.0" y="1130" type="qcurve" smooth="yes"/>
      <point x="798.0" y="1130.0" type="line" smooth="yes"/>
      <point x="766.0" y="1130.0"/>
      <point x="725.0" y="1039"/>
      <point x="725.0" y="953" type="qcurve" smooth="yes"/>
      <point x="725.0" y="482" type="line" smooth="yes"/>
      <point x="725.0" y="414"/>
      <point x="791" y="336"/>
      <point x="835.0" y="336.0" type="qcurve" smooth="yes"/>
    </contour>
  </outline>
</glyph>
<glyph name="H" format="2">
  <advance width="1700"/>
  <unicode hex="0048"/>
  <outline>
    <contour>
      <point x="140" y="0" type="line"/>
      <point x="140" y="1500" type="line"/>
      <point x="775" y="1500" type="line"/>
      <point x="775" y="0" type="line"/>
    </contour>
    <contour>
      <point x="925" y="0" type="line"/>
      <point x="925" y="1500" type="line"/>
      <point x="1560" y="1500" type="line"/>
      <point x="1560" y="0" type="line"/>
    </contour>
    <contour>
      <point x="1306" y="560" type="line"/>
      <point x="496" y="560" type="line"/>
      <point x="496" y="1015" type="line"/>
      <point x="1306" y="1015" type="line"/>
    </contour>
  </outline>
</glyph>
<glyph name="J" format="2">
  <advance width="1218"/>
  <unicode hex="004A"/>
  <outline>
    <contour>
      <point x="1128" y="500" type="line" smooth="yes"/>
      <point x="1128.0" y="204.0"/>
      <point x="781" y="-32"/>
      <point x="543" y="-32" type="qcurve" smooth="yes"/>
      <point x="521" y="-32" type="line" smooth="yes"/>
      <point x="243" y="-32"/>
      <point x="-12" y="156.0"/>
      <point x="-12" y="339" type="qcurve" smooth="yes"/>
      <point x="-12" y="524" type="line"/>
      <point x="503" y="524.0" type="line"/>
      <point x="503.0" y="391" type="line" smooth="yes"/>
      <point x="503" y="384"/>
      <point x="492.0" y="369.0"/>
      <point x="483.0" y="369" type="qcurve" smooth="yes"/>
      <point x="485.0" y="369" type="line" smooth="yes"/>
      <point x="497.0" y="369.0"/>
      <point x="507.0" y="366.0"/>
      <point x="507.0" y="405" type="qcurve" smooth="yes"/>
      <point x="507" y="1500.0" type="line"/>
      <point x="1128" y="1500" type="line"/>
    </contour>
  </outline>
</glyph>
<glyph name="K" format="2">
  <advance width="1421"/>
  <unicode hex="004B"/>
  <outline>
    <contour>
      <point x="134" y="0" type="line"/>
      <point x="134" y="1500" type="line"/>
      <point x="769" y="1500" type="line"/>
      <point x="762" y="1094" type="line"/>
      <point x="785" y="1243" type="line"/>
      <point x="887" y="1500" type="line"/>
      <point x="1550" y="1500" type="line"/>
      <point x="956" y="656" type="line"/>
      <point x="892" y="686" type="line"/>
      <point x="762" y="486" type="line"/>
      <point x="769" y="0" type="line"/>
    </contour>
    <contour>
      <point x="438" y="603" type="line"/>
      <point x="849" y="1020" type="line"/>
      <point x="1640" y="0" type="line"/>
      <point x="880" y="0" type="line"/>
    </contour>
  </outline>
</glyph>
<glyph name="L" format="2">
  <advance width="1190"/>
  <unicode hex="004C"/>
  <outline>
    <contour>
      <point x="133" y="0" type="line"/>
      <point x="133" y="1500" type="line"/>
      <point x="773" y="1500" type="line"/>
      <point x="773" y="0" type="line"/>
    </contour>
    <contour>
      <point x="1180" y="0" type="line"/>
      <point x="376" y="0" type="line"/>
      <point x="376" y="445" type="line"/>
      <point x="1180" y="445" type="line"/>
    </contour>
  </outline>
</glyph>
<glyph name="M" format="2">
  <advance width="2205"/>
  <unicode hex="004D"/>
  <outline>
    <contour>
      <point x="105" y="0" type="line"/>
      <point x="105" y="1500" type="line"/>
      <point x="894" y="1500" type="line"/>
      <point x="1093" y="785" type="line"/>
      <point x="1106" y="785" type="line"/>
      <point x="1297" y="1500" type="line"/>
      <point x="2100" y="1500" type="line"/>
      <point x="2100" y="0" type="line"/>
      <point x="1574" y="0" type="line"/>
      <point x="1574" y="765" type="line"/>
      <point x="1377" y="0" type="line"/>
      <point x="856" y="0" type="line"/>
      <point x="641" y="756" type="line"/>
      <point x="641" y="0" type="line"/>
    </contour>
  </outline>
</glyph>
<glyph name="N" format="2">
  <advance width="1665"/>
  <unicode hex="004E"/>
  <outline>
    <contour>
      <point x="134" y="0" type="line"/>
      <point x="134" y="1500" type="line"/>
      <point x="675" y="1498" type="line"/>
      <point x="990" y="1005" type="line"/>
      <point x="990" y="1500" type="line"/>
      <point x="1531" y="1500" type="line"/>
      <point x="1531" y="0" type="line"/>
      <point x="970" y="0" type="line"/>
      <point x="970" y="63" type="line"/>
      <point x="655" y="538" type="line"/>
      <point x="655" y="0" type="line"/>
    </contour>
  </outline>
</glyph>
<glyph name="O" format="2">
  <advance width="1662"/>
  <unicode hex="004F"/>
  <outline>
    <contour>
      <point x="798" y="-32.0" type="line" smooth="yes"/>
      <point x="463.0" y="-32"/>
      <point x="52" y="394"/>
      <point x="52" y="716.0" type="qcurve" smooth="yes"/>
      <point x="52" y="779.0" type="line" smooth="yes"/>
      <point x="52" y="1091"/>
      <point x="458.0" y="1528.0"/>
      <point x="793" y="1528.0" type="qcurve" smooth="yes"/>
      <point x="862" y="1528.0" type="line" smooth="yes"/>
      <point x="1205" y="1528"/>
      <point x="1610" y="1101"/>
      <point x="1610" y="779.0" type="qcurve" smooth="yes"/>
      <point x="1610" y="716.0" type="line" smooth="yes"/>
      <point x="1610" y="394"/>
      <point x="1210" y="-32"/>
      <point x="867" y="-32.0" type="qcurve" smooth="yes"/>
    </contour>
    <contour>
      <point x="846" y="362.0" type="line" smooth="yes"/>
      <point x="896" y="362"/>
      <point x="933" y="471"/>
      <point x="933.0" y="643" type="qcurve" smooth="yes"/>
      <point x="933.0" y="832" type="line" smooth="yes"/>
      <point x="933" y="1002"/>
      <point x="896" y="1114"/>
      <point x="840" y="1114.0" type="qcurve" smooth="yes"/>
      <point x="821" y="1114.0" type="line" smooth="yes"/>
      <point x="766.0" y="1114.0"/>
      <point x="729" y="1002"/>
      <point x="729.0" y="832" type="qcurve" smooth="yes"/>
      <point x="729.0" y="643" type="line" smooth="yes"/>
      <point x="729" y="471"/>
      <point x="766.0" y="362.0"/>
      <point x="819" y="362.0" type="qcurve" smooth="yes"/>
    </contour>
  </outline>
</glyph>
<glyph name="Q" format="2">
  <advance width="1662"/>
  <unicode hex="0051"/>
  <outline>
    <contour>
      <point x="828" y="-2.0" type="line" smooth="yes"/>
      <point x="493" y="-2"/>
      <point x="82" y="404.0"/>
      <point x="82" y="736.0" type="qcurve" smooth="yes"/>
      <point x="82" y="779.0" type="line" smooth="yes"/>
      <point x="82" y="1101.0"/>
      <point x="488" y="1528.0"/>
      <point x="823" y="1528.0" type="qcurve" smooth="yes"/>
      <point x="832" y="1528.0" type="line" smooth="yes"/>
      <point x="1175" y="1528.0"/>
      <point x="1580.0" y="1101.0"/>
      <point x="1580" y="779.0" type="qcurve" smooth="yes"/>
      <point x="1580" y="736.0" type="line" smooth="yes"/>
      <point x="1580.0" y="434.0"/>
      <point x="1150.0" y="-2.0"/>
      <point x="837" y="-2.0" type="qcurve" smooth="yes"/>
    </contour>
    <contour>
      <point x="831.0" y="372.0" type="line" smooth="yes"/>
      <point x="866" y="372"/>
      <point x="903.0" y="491.0"/>
      <point x="903.0" y="643" type="qcurve" smooth="yes"/>
      <point x="903.0" y="832" type="line" smooth="yes"/>
      <point x="903.0" y="982"/>
      <point x="866.0" y="1114"/>
      <point x="831.0" y="1114" type="qcurve" smooth="yes"/>
      <point x="830.0" y="1114" type="line" smooth="yes"/>
      <point x="796.0" y="1114"/>
      <point x="759.0" y="982"/>
      <point x="759.0" y="832" type="qcurve" smooth="yes"/>
      <point x="759.0" y="643" type="line" smooth="yes"/>
      <point x="759.0" y="491.0"/>
      <point x="796" y="372"/>
      <point x="830.0" y="372.0" type="qcurve" smooth="yes"/>
    </contour>
    <contour>
      <point x="803" y="279" type="line"/>
      <point x="1626" y="263" type="line"/>
      <point x="1626" y="-162" type="line"/>
      <point x="804" y="-11" type="line"/>
    </contour>
  </outline>
</glyph>
<glyph name="U" format="2">
  <advance width="1511"/>
  <unicode hex="0055"/>
  <outline>
    <contour>
      <point x="85" y="1500.0" type="line"/>
      <point x="695.0" y="1500" type="line"/>
      <point x="695.0" y="523.0" type="line" smooth="yes"/>
      <point x="695.0" y="482.0"/>
      <point x="725" y="441"/>
      <point x="759.0" y="441" type="qcurve" smooth="yes"/>
      <point x="768.0" y="441" type="line" smooth="yes"/>
      <point x="805.0" y="441.0"/>
      <point x="839" y="482"/>
      <point x="839.0" y="523.0" type="qcurve" smooth="yes"/>
      <point x="839.0" y="1500" type="line"/>
      <point x="1433" y="1500.0" type="line"/>
      <point x="1429" y="603.0" type="line" smooth="yes"/>
      <point x="1428" y="288"/>
      <point x="1062.0" y="-33.0"/>
      <point x="767" y="-33.0" type="qcurve" smooth="yes"/>
      <point x="755" y="-33.0" type="line" smooth="yes"/>
      <point x="446.0" y="-33"/>
      <point x="85" y="315.0"/>
      <point x="85" y="633.0" type="qcurve" smooth="yes"/>
    </contour>
  </outline>
</glyph>
<glyph name="V" format="2">
  <advance width="1291"/>
  <unicode hex="0056"/>
  <outline>
    <contour>
      <point x="356" y="0" type="line"/>
      <point x="-70" y="1500" type="line"/>
      <point x="529.0" y="1500" type="line"/>
      <point x="657.0" y="916" type="line"/>
      <point x="796.0" y="1500" type="line"/>
      <point x="1371" y="1500" type="line"/>
      <point x="896" y="0" type="line"/>
    </contour>
  </outline>
</glyph>
<glyph name="W" format="2">
  <advance width="1810"/>
  <unicode hex="0057"/>
  <outline>
    <contour>
      <point x="335" y="0" type="line"/>
      <point x="-60" y="1500" type="line"/>
      <point x="559" y="1500" type="line"/>
      <point x="662" y="1177" type="line"/>
      <point x="732" y="1500" type="line"/>
      <point x="1152" y="1500" type="line"/>
      <point x="1245" y="1180" type="line"/>
      <point x="1314" y="1500" type="line"/>
      <point x="1870" y="1500" type="line"/>
      <point x="1475" y="0" type="line"/>
      <point x="1074.0" y="0.0" type="line"/>
      <point x="918.0" y="358" type="line"/>
      <point x="892.0" y="358" type="line"/>
      <point x="736.0" y="0.0" type="line"/>
    </contour>
  </outline>
</glyph>
<glyph name="Y" format="2">
  <advance width="1230"/>
  <unicode hex="0059"/>
  <outline>
    <contour>
      <point x="359" y="400" type="line"/>
      <point x="-90" y="1500" type="line"/>
      <point x="510" y="1500" type="line"/>
      <point x="648" y="1099" type="line"/>
      <point x="789" y="1500" type="line"/>
      <point x="1320" y="1500" type="line"/>
      <point x="872" y="400" type="line"/>
    </contour>
    <contour>
      <point x="306" y="0" type="line"/>
      <point x="306" y="570" type="line"/>
      <point x="929" y="570" type="line"/>
      <point x="929" y="0" type="line"/>
    </contour>
  </outline>
</glyph>
<glyph name="bracketleft" format="2">
  <advance width="748"/>
  <unicode hex="005B"/>
  <outline>
    <contour>
      <point x="18" y="-280" type="line"/>
      <point x="18" y="1500" type="line"/>
      <point x="569" y="1500" type="line"/>
      <point x="569" y="-280" type="line"/>
    </contour>
    <contour>
      <point x="836" y="-280" type="line"/>
      <point x="349" y="-280" type="line"/>
      <point x="349" y="125" type="line"/>
      <point x="836" y="125" type="line"/>
    </contour>
    <contour>
      <point x="836" y="1095" type="line"/>
      <point x="344" y="1095" type="line"/>
      <point x="344" y="1500" type="line"/>
      <point x="836" y="1500" type="line"/>
    </contour>
  </outline>
</glyph>
<glyph name="backslash" format="2">
  <advance width="724"/>
  <unicode hex="005C"/>
  <outline>
    <contour>
      <point x="792" y="0" type="line"/>
      <point x="272" y="0" type="line"/>
      <point x="-68" y="1500" type="line"/>
      <point x="452" y="1500" type="line"/>
    </contour>
  </outline>
</glyph>
<glyph name="a" format="2">
  <advance width="1240"/>
  <unicode hex="0061"/>
  <outline>
    <contour>
      <point x="123" y="956.0" type="line"/>
      <point x="212" y="1015.0"/>
      <point x="487" y="1081"/>
      <point x="644" y="1081.0" type="qcurve" smooth="yes"/>
      <point x="938.0" y="1081.0"/>
      <point x="1181" y="870"/>
      <point x="1182" y="671" type="qcurve" smooth="yes"/>
      <point x="1185.0" y="1.0" type="line"/>
      <point x="706" y="1.0" type="line"/>
      <point x="677" y="641" type="line" smooth="yes"/>
      <point x="673" y="720"/>
      <point x="602.0" y="767.0"/>
      <point x="515.0" y="767" type="qcurve" smooth="yes"/>
      <point x="440" y="767"/>
      <point x="252.0" y="706"/>
      <point x="178.0" y="666" type="qcurve"/>
    </contour>
    <contour>
      <point x="833.0" y="324" type="line"/>
      <point x="794.0" y="202"/>
      <point x="550.0" y="-22"/>
      <point x="422.0" y="-22" type="qcurve" smooth="yes"/>
      <point x="246.0" y="-22"/>
      <point x="0" y="145"/>
      <point x="0" y="314" type="qcurve" smooth="yes"/>
      <point x="0" y="465"/>
      <point x="263.0" y="640"/>
      <point x="422.0" y="640" type="qcurve" smooth="yes"/>
      <point x="579.0" y="640"/>
      <point x="754.0" y="554"/>
      <point x="833.0" y="481" type="qcurve"/>
      <point x="833.0" y="417" type="line"/>
      <point x="755.0" y="435"/>
      <point x="657" y="452"/>
      <point x="612.0" y="452" type="qcurve" smooth="yes"/>
      <point x="556" y="452"/>
      <point x="503" y="409"/>
      <point x="503.0" y="361" type="qcurve" smooth="yes"/>
      <point x="503.0" y="307"/>
      <point x="555" y="265"/>
      <point x="617.0" y="265" type="qcurve" smooth="yes"/>
      <point x="663" y="265"/>
      <point x="756.0" y="320.0"/>
      <point x="833.0" y="423" type="qcurve"/>
    </contour>
  </outline>
</glyph>
<glyph name="b" format="2">
  <advance width="1358"/>
  <unicode hex="0062"/>
  <outline>
    <contour>
      <point x="65" y="2" type="line"/>
      <point x="65" y="1540" type="line"/>
      <point x="625" y="1540" type="line"/>
      <point x="615" y="2" type="line"/>
    </contour>
    <contour>
      <point x="536.0" y="761" type="line" smooth="yes"/>
      <point x="536.0" y="854.0"/>
      <point x="736.0" y="1082"/>
      <point x="927.0" y="1082" type="qcurve" smooth="yes"/>
      <point x="934" y="1082.0" type="line" smooth="yes"/>
      <point x="1128" y="1082.0"/>
      <point x="1324" y="768"/>
      <point x="1324" y="557.0" type="qcurve" smooth="yes"/>
      <point x="1324" y="531.0" type="line" smooth="yes"/>
      <point x="1324" y="310"/>
      <point x="1141" y="-15"/>
      <point x="937" y="-15.0" type="qcurve" smooth="yes"/>
      <point x="931.0" y="-15" type="line" smooth="yes"/>
      <point x="740" y="-15"/>
      <point x="536.0" y="206"/>
      <point x="536.0" y="266" type="qcurve" smooth="yes"/>
    </contour>
    <contour>
      <point x="621" y="622.0" type="qcurve" smooth="yes"/>
      <point x="621" y="429.0" type="line" smooth="yes"/>
      <point x="621" y="362.0"/>
      <point x="675" y="292.0"/>
      <point x="698" y="292.0" type="qcurve" smooth="yes"/>
      <point x="701" y="292.0" type="line" smooth="yes"/>
      <point x="725" y="292.0"/>
      <point x="766" y="356.0"/>
      <point x="766" y="429.0" type="qcurve" smooth="yes"/>
      <point x="766" y="631.0" type="line" smooth="yes"/>
      <point x="766" y="709.0"/>
      <point x="714" y="754.0"/>
      <point x="690" y="754.0" type="qcurve" smooth="yes"/>
      <point x="686" y="754.0" type="line" smooth="yes"/>
      <point x="664" y="754.0"/>
      <point x="621" y="676.0"/>
    </contour>
  </outline>
</glyph>
<glyph name="c" format="2">
  <advance width="1206"/>
  <unicode hex="0063"/>
  <outline>
    <contour>
      <point x="1198.0" y="438.0" type="line"/>
      <point x="1195" y="351.0" type="line" smooth="yes"/>
      <point x="1189" y="188"/>
      <point x="880" y="-25.0"/>
      <point x="643" y="-25.0" type="qcurve" smooth="yes"/>
      <point x="634" y="-25.0" type="line" smooth="yes"/>
      <point x="377" y="-25.0"/>
      <point x="34" y="259.0"/>
      <point x="34" y="504.0" type="qcurve" smooth="yes"/>
      <point x="34" y="540.0" type="line" smooth="yes"/>
      <point x="34" y="785.0"/>
      <point x="366" y="1082.0"/>
      <point x="619" y="1082.0" type="qcurve" smooth="yes"/>
      <point x="645" y="1082.0" type="line" smooth="yes"/>
      <point x="890.0" y="1082.0"/>
      <point x="1188" y="866"/>
      <point x="1194" y="682.0" type="qcurve" smooth="yes"/>
      <point x="1196" y="584.0" type="line"/>
      <point x="713" y="584.0" type="line"/>
      <point x="713" y="687.0" type="line" smooth="yes"/>
      <point x="713" y="716"/>
      <point x="688" y="748"/>
      <point x="666" y="748.0" type="qcurve" smooth="yes"/>
      <point x="647" y="748.0" type="line" smooth="yes"/>
      <point x="623.0" y="748.0"/>
      <point x="605" y="695.0"/>
      <point x="605" y="654.0" type="qcurve" smooth="yes"/>
      <point x="605" y="415.0" type="line" smooth="yes"/>
      <point x="605" y="361.0"/>
      <point x="636" y="296"/>
      <point x="662" y="296.0" type="qcurve" smooth="yes"/>
      <point x="678" y="296.0" type="line" smooth="yes"/>
      <point x="704.0" y="296.0"/>
      <point x="714" y="337.0"/>
      <point x="714" y="370.0" type="qcurve" smooth="yes"/>
      <point x="717" y="440.0" type="line"/>
    </contour>
  </outline>
</glyph>
<glyph name="d" format="2">
  <advance width="1358"/>
  <unicode hex="0064"/>
  <outline>
    <contour>
      <point x="1293" y="0" type="line"/>
      <point x="753" y="0" type="line"/>
      <point x="733" y="1540" type="line"/>
      <point x="1293" y="1540" type="line"/>
    </contour>
    <contour>
      <point x="835.0" y="762.0" type="qcurve" smooth="yes"/>
      <point x="835.0" y="258.0" type="line" smooth="yes"/>
      <point x="835" y="177"/>
      <point x="632" y="-25"/>
      <point x="472.0" y="-25.0" type="qcurve" smooth="yes"/>
      <point x="466.0" y="-25.0" type="line" smooth="yes"/>
      <point x="261" y="-25"/>
      <point x="34" y="284"/>
      <point x="34.0" y="506.0" type="qcurve" smooth="yes"/>
      <point x="34.0" y="541.0" type="line" smooth="yes"/>
      <point x="34" y="762"/>
      <point x="264" y="1083"/>
      <point x="469.0" y="1083.0" type="qcurve" smooth="yes"/>
      <point x="475.0" y="1083.0" type="line" smooth="yes"/>
      <point x="647" y="1083"/>
      <point x="835" y="885"/>
    </contour>
    <contour>
      <point x="744" y="617.0" type="line" smooth="yes"/>
      <point x="744.0" y="707.0"/>
      <point x="705" y="755"/>
      <point x="676" y="755.0" type="qcurve" smooth="yes"/>
      <point x="664" y="755.0" type="line" smooth="yes"/>
      <point x="643.0" y="755.0"/>
      <point x="607" y="693"/>
      <point x="607.0" y="617.0" type="qcurve" smooth="yes"/>
      <point x="607.0" y="405.0" type="line" smooth="yes"/>
      <point x="607.0" y="333.0"/>
      <point x="644.0" y="287.0"/>
      <point x="664" y="287.0" type="qcurve" smooth="yes"/>
      <point x="676" y="287.0" type="line" smooth="yes"/>
      <point x="696" y="287"/>
      <point x="744" y="341.0"/>
      <point x="744" y="415.0" type="qcurve" smooth="yes"/>
    </contour>
  </outline>
</glyph>
<glyph name="e" format="2">
  <advance width="1247"/>
  <unicode hex="0065"/>
  <outline>
    <contour>
      <point x="1214" y="345.0" type="line"/>
      <point x="1207.0" y="302" type="line" smooth="yes"/>
      <point x="1181" y="140"/>
      <point x="904.0" y="-25.0"/>
      <point x="641.0" y="-25.0" type="qcurve" smooth="yes"/>
      <point x="635" y="-25.0" type="line" smooth="yes"/>
      <point x="372.0" y="-25"/>
      <point x="34" y="253.0"/>
      <point x="34" y="505.0" type="qcurve" smooth="yes"/>
      <point x="34" y="540.0" type="line" smooth="yes"/>
      <point x="34" y="781.0"/>
      <point x="362.0" y="1082.0"/>
      <point x="622" y="1082.0" type="qcurve" smooth="yes"/>
      <point x="646" y="1082.0" type="line" smooth="yes"/>
      <point x="916.0" y="1082.0"/>
      <point x="1204" y="787"/>
      <point x="1208" y="566" type="qcurve" smooth="yes"/>
      <point x="1211" y="430.0" type="line"/>
      <point x="315" y="430" type="line"/>
      <point x="315" y="618" type="line"/>
      <point x="763" y="618.0" type="line"/>
      <point x="763.0" y="665.0" type="line" smooth="yes"/>
      <point x="763" y="712"/>
      <point x="715.0" y="774.0"/>
      <point x="667.0" y="774.0" type="qcurve" smooth="yes"/>
      <point x="622.0" y="774.0" type="line" smooth="yes"/>
      <point x="570" y="774"/>
      <point x="517" y="702"/>
      <point x="517.0" y="613.0" type="qcurve"/>
      <point x="537.0" y="435.0" type="line"/>
      <point x="537" y="353"/>
      <point x="604" y="264"/>
      <point x="661.0" y="264.0" type="qcurve" smooth="yes"/>
      <point x="668.0" y="264.0" type="line" smooth="yes"/>
      <point x="706.0" y="264.0"/>
      <point x="741" y="290"/>
      <point x="744.0" y="321.0" type="qcurve" smooth="yes"/>
      <point x="748" y="350.0" type="line"/>
    </contour>
  </outline>
</glyph>
<glyph name="f" format="2">
  <advance width="686"/>
  <unicode hex="0066"/>
  <outline>
    <contour>
      <point x="699" y="655" type="line"/>
      <point x="-9" y="655" type="line"/>
      <point x="-9" y="1030" type="line"/>
      <point x="699" y="1030" type="line"/>
    </contour>
    <contour>
      <point x="605.0" y="1110.0" type="qcurve" smooth="yes"/>
      <point x="615" y="0" type="line"/>
      <point x="59" y="0.0" type="line"/>
      <point x="59.0" y="1164.0" type="line" smooth="yes"/>
      <point x="59" y="1365"/>
      <point x="314" y="1605.0"/>
      <point x="501" y="1605.0" type="qcurve" smooth="yes"/>
      <point x="618" y="1605"/>
      <point x="729.0" y="1577.0"/>
      <point x="765" y="1557" type="qcurve"/>
      <point x="759" y="1253" type="line"/>
      <point x="738.0" y="1258.0"/>
      <point x="710" y="1265"/>
      <point x="682" y="1265.0" type="qcurve" smooth="yes"/>
      <point x="652" y="1265"/>
      <point x="605.0" y="1196.0"/>
    </contour>
  </outline>
</glyph>
<glyph name="g" format="2">
  <advance width="1408"/>
  <unicode hex="0067"/>
  <outline>
    <contour>
      <point x="855" y="825.0" type="qcurve" smooth="yes"/>
      <point x="855" y="222.0" type="line" smooth="yes"/>
      <point x="855.0" y="147.0"/>
      <point x="676" y="-35.0"/>
      <point x="534" y="-35.0" type="qcurve" smooth="yes"/>
      <point x="486.0" y="-35.0" type="line" smooth="yes"/>
      <point x="281" y="-35"/>
      <point x="54" y="254.0"/>
      <point x="54.0" y="526.0" type="qcurve" smooth="yes"/>
      <point x="54.0" y="551.0" type="line" smooth="yes"/>
      <point x="54" y="792.0"/>
      <point x="294.0" y="1083.0"/>
      <point x="499.0" y="1083.0" type="qcurve" smooth="yes"/>
      <point x="546" y="1083.0" type="line" smooth="yes"/>
      <point x="692" y="1083.0"/>
      <point x="855" y="921.0"/>
    </contour>
    <contour>
      <point x="754" y="617.0" type="line" smooth="yes"/>
      <point x="754" y="707.0"/>
      <point x="717" y="755.0"/>
      <point x="690" y="755.0" type="qcurve" smooth="yes"/>
      <point x="688" y="755.0" type="line" smooth="yes"/>
      <point x="669" y="755.0"/>
      <point x="625" y="693.0"/>
      <point x="625" y="617.0" type="qcurve" smooth="yes"/>
      <point x="625" y="425.0" type="line" smooth="yes"/>
      <point x="625" y="333.0"/>
      <point x="670" y="277.0"/>
      <point x="688" y="277.0" type="qcurve" smooth="yes"/>
      <point x="690" y="277.0" type="line" smooth="yes"/>
      <point x="708" y="277.0"/>
      <point x="754.0" y="331.0"/>
      <point x="754" y="415.0" type="qcurve" smooth="yes"/>
    </contour>
    <contour>
      <point x="99" y="-75.0" type="line"/>
      <point x="155" y="-90.0"/>
      <point x="297" y="-125"/>
      <point x="473" y="-125.0" type="qcurve" smooth="yes"/>
      <point x="639.0" y="-125.0"/>
      <point x="766.0" y="50"/>
      <point x="766" y="216.0" type="qcurve" smooth="yes"/>
      <point x="766" y="1040.0" type="line"/>
      <point x="1303" y="1040.0" type="line"/>
      <point x="1303.0" y="216" type="line" smooth="yes"/>
      <point x="1303.0" y="-184.0"/>
      <point x="834" y="-490.0"/>
      <point x="538" y="-490.0" type="qcurve" smooth="yes"/>
      <point x="333" y="-490.0"/>
      <point x="143" y="-455.0"/>
      <point x="74" y="-440.0" type="qcurve"/>
    </contour>
  </outline>
</glyph>
<glyph name="h" format="2">
  <advance width="1365"/>
  <unicode hex="0068"/>
  <outline>
    <contour>
      <point x="65" y="0" type="line"/>
      <point x="65" y="1540" type="line"/>
      <point x="615" y="1540" type="line"/>
      <point x="625" y="0" type="line"/>
    </contour>
    <contour>
      <point x="438" y="500" type="line"/>
      <point x="445" y="691"/>
      <point x="673.0" y="1080.0"/>
      <point x="897" y="1080.0" type="qcurve" smooth="yes"/>
      <point x="1087" y="1080.0"/>
      <point x="1310.0" y="869.0"/>
      <point x="1310" y="683" type="qcurve" smooth="yes"/>
      <point x="1310" y="0" type="line"/>
      <point x="749" y="0" type="line"/>
      <point x="749.0" y="638" type="line" smooth="yes"/>
      <point x="749.0" y="657.0"/>
      <point x="715" y="665.0"/>
      <point x="709" y="665.0" type="qcurve" smooth="yes"/>
      <point x="666" y="665"/>
      <point x="542" y="511"/>
      <point x="478" y="379" type="qcurve"/>
    </contour>
  </outline>
</glyph>
<glyph name="i" format="2">
  <advance width="733"/>
  <unicode hex="0069"/>
  <outline>
    <contour>
      <point x="117" y="0" type="line"/>
      <point x="137" y="1010" type="line"/>
      <point x="671" y="1030" type="line"/>
      <point x="671" y="0" type="line"/>
    </contour>
    <contour>
      <point x="389" y="1075" type="line" smooth="yes"/>
      <point x="528" y="1075"/>
      <point x="674" y="1210"/>
      <point x="674" y="1316" type="qcurve" smooth="yes"/>
      <point x="674" y="1331" type="line" smooth="yes"/>
      <point x="674" y="1436"/>
      <point x="531" y="1574"/>
      <point x="389" y="1574" type="qcurve" smooth="yes"/>
      <point x="383" y="1574" type="line" smooth="yes"/>
      <point x="252" y="1574"/>
      <point x="107" y="1436"/>
      <point x="107" y="1331" type="qcurve" smooth="yes"/>
      <point x="107" y="1316" type="line" smooth="yes"/>
      <point x="107" y="1207"/>
      <point x="248" y="1075"/>
      <point x="383" y="1075" type="qcurve" smooth="yes"/>
    </contour>
    <contour>
      <point x="519" y="640" type="line"/>
      <point x="17" y="620" type="line"/>
      <point x="17" y="1020" type="line"/>
      <point x="519" y="1020" type="line"/>
    </contour>
  </outline>
</glyph>
<glyph name="j" format="2">
  <advance width="716"/>
  <unicode hex="006A"/>
  <outline>
    <contour>
      <point x="651" y="136.0" type="line" smooth="yes"/>
      <point x="651.0" y="-265.0"/>
      <point x="331" y="-498"/>
      <point x="136" y="-498" type="qcurve" smooth="yes"/>
      <point x="-18" y="-498.0"/>
      <point x="-145" y="-488.0"/>
      <point x="-173" y="-481.0" type="qcurve"/>
      <point x="-173" y="-91.0" type="line"/>
      <point x="-158" y="-95.0"/>
      <point x="-100" y="-103.0"/>
      <point x="-54" y="-103.0" type="qcurve" smooth="yes"/>
      <point x="2" y="-103.0"/>
      <point x="101" y="13.0"/>
      <point x="101" y="157.0" type="qcurve" smooth="yes"/>
      <point x="101" y="1002" type="line"/>
      <point x="651" y="1042" type="line"/>
    </contour>
    <contour>
      <point x="502" y="640" type="line"/>
      <point x="10" y="620" type="line"/>
      <point x="10" y="1022" type="line"/>
      <point x="502" y="1032" type="line"/>
    </contour>
    <contour>
      <point x="399" y="1075" type="line" smooth="yes"/>
      <point x="538" y="1075"/>
      <point x="684" y="1210"/>
      <point x="684" y="1316" type="qcurve" smooth="yes"/>
      <point x="684" y="1331" type="line" smooth="yes"/>
      <point x="684" y="1436"/>
      <point x="541" y="1574"/>
      <point x="399" y="1574" type="qcurve" smooth="yes"/>
      <point x="393" y="1574" type="line" smooth="yes"/>
      <point x="262" y="1574"/>
      <point x="117" y="1436"/>
      <point x="117" y="1331" type="qcurve" smooth="yes"/>
      <point x="117" y="1316" type="line" smooth="yes"/>
      <point x="117" y="1207"/>
      <point x="258" y="1075"/>
      <point x="393" y="1075" type="qcurve" smooth="yes"/>
    </contour>
  </outline>
</glyph>
<glyph name="k" format="2">
  <advance width="1382"/>
  <unicode hex="006B"/>
  <outline>
    <contour>
      <point x="106" y="0" type="line"/>
      <point x="106" y="1540" type="line"/>
      <point x="664" y="1540" type="line"/>
      <point x="664" y="0" type="line"/>
    </contour>
    <contour>
      <point x="822" y="477" type="line"/>
      <point x="664" y="374" type="line"/>
      <point x="664" y="750" type="line"/>
      <point x="660" y="784" type="line"/>
      <point x="868" y="1040" type="line"/>
      <point x="1444" y="1040" type="line"/>
      <point x="1027" y="567" type="line"/>
    </contour>
    <contour>
      <point x="931" y="801" type="line"/>
      <point x="1517" y="0" type="line"/>
      <point x="908" y="0" type="line"/>
      <point x="493" y="557" type="line"/>
    </contour>
  </outline>
</glyph>
<glyph name="m" format="2">
  <advance width="2068"/>
  <unicode hex="006D"/>
  <outline>
    <contour>
      <point x="65" y="0" type="line"/>
      <point x="65" y="1040" type="line"/>
      <point x="605" y="1040" type="line"/>
      <point x="625" y="0" type="line"/>
    </contour>
    <contour>
      <point x="428" y="485" type="line"/>
      <point x="455" y="666"/>
      <point x="724" y="1080.0"/>
      <point x="915" y="1080.0" type="qcurve" smooth="yes"/>
      <point x="1095" y="1080"/>
      <point x="1304" y="869"/>
      <point x="1307" y="683" type="qcurve" smooth="yes"/>
      <point x="1317" y="0" type="line"/>
      <point x="757" y="0" type="line"/>
      <point x="757.0" y="648" type="line" smooth="yes"/>
      <point x="757" y="667"/>
      <point x="723" y="675"/>
      <point x="729" y="675" type="qcurve" smooth="yes"/>
      <point x="664" y="675"/>
      <point x="532" y="514"/>
      <point x="468" y="382" type="qcurve"/>
    </contour>
    <contour>
      <point x="1112" y="569" type="line"/>
      <point x="1119" y="733"/>
      <point x="1389" y="1080.0"/>
      <point x="1606" y="1080.0" type="qcurve" smooth="yes"/>
      <point x="1790" y="1080"/>
      <point x="2012" y="869"/>
      <point x="2013" y="683" type="qcurve" smooth="yes"/>
      <point x="2013" y="0" type="line"/>
      <point x="1452" y="0" type="line"/>
      <point x="1452.0" y="648" type="line" smooth="yes"/>
      <point x="1452" y="667"/>
      <point x="1418" y="675"/>
      <point x="1424" y="675" type="qcurve" smooth="yes"/>
      <point x="1359" y="675"/>
      <point x="1227" y="514"/>
      <point x="1163" y="382" type="qcurve"/>
    </contour>
  </outline>
</glyph>
<glyph name="o" format="2">
  <advance width="1334"/>
  <unicode hex="006F"/>
  <outline>
    <contour>
      <point x="659" y="-24.0" type="line" smooth="yes"/>
      <point x="389" y="-24.0"/>
      <point x="34" y="272"/>
      <point x="34" y="504.0" type="qcurve" smooth="yes"/>
      <point x="34" y="540.0" type="line" smooth="yes"/>
      <point x="34" y="781"/>
      <point x="385" y="1081.0"/>
      <point x="655" y="1081.0" type="qcurve" smooth="yes"/>
      <point x="663" y="1081.0" type="line" smooth="yes"/>
      <point x="938" y="1081.0"/>
      <point x="1300" y="782"/>
      <point x="1300" y="540.0" type="qcurve" smooth="yes"/>
      <point x="1300" y="504.0" type="line" smooth="yes"/>
      <point x="1300" y="272"/>
      <point x="941" y="-24.0"/>
      <point x="667" y="-24.0" type="qcurve" smooth="yes"/>
    </contour>
    <contour>
      <point x="680.0" y="285" type="line" smooth="yes"/>
      <point x="706" y="285"/>
      <point x="738" y="334"/>
      <point x="738.0" y="423" type="qcurve" smooth="yes"/>
      <point x="738.0" y="623" type="line" smooth="yes"/>
      <point x="738" y="706"/>
      <point x="706.0" y="751.0"/>
      <point x="680.0" y="751" type="qcurve" smooth="yes"/>
      <point x="656.0" y="751" type="line" smooth="yes"/>
      <point x="633" y="751"/>
      <point x="604" y="706"/>
      <point x="604.0" y="623" type="qcurve" smooth="yes"/>
      <point x="604.0" y="423" type="line" smooth="yes"/>
      <point x="604" y="334"/>
      <point x="632" y="285"/>
      <point x="656.0" y="285" type="qcurve" smooth="yes"/>
    </contour>
  </outline>
</glyph>
<glyph name="p" format="2">
  <advance width="1415"/>
  <unicode hex="0070"/>
  <outline>
    <contour>
      <point x="105" y="-470" type="line"/>
      <point x="105" y="1040" type="line"/>
      <point x="645" y="1040" type="line"/>
      <point x="665" y="-470" type="line"/>
    </contour>
    <contour>
      <point x="536.0" y="770" type="line" smooth="yes"/>
      <point x="536.0" y="843"/>
      <point x="735.0" y="1091"/>
      <point x="926.0" y="1091" type="qcurve" smooth="yes"/>
      <point x="933" y="1091.0" type="line" smooth="yes"/>
      <point x="1142.0" y="1091.0"/>
      <point x="1348.0" y="780.0"/>
      <point x="1348" y="549.0" type="qcurve" smooth="yes"/>
      <point x="1348" y="514.0" type="line" smooth="yes"/>
      <point x="1348.0" y="285.0"/>
      <point x="1133.0" y="-22.0"/>
      <point x="926" y="-22.0" type="qcurve" smooth="yes"/>
      <point x="910" y="-22.0" type="line" smooth="yes"/>
      <point x="723" y="-22.0"/>
      <point x="536" y="165.0"/>
      <point x="536" y="192.0" type="qcurve" smooth="yes"/>
    </contour>
    <contour>
      <point x="661.0" y="631" type="qcurve" smooth="yes"/>
      <point x="661.0" y="429" type="line" smooth="yes"/>
      <point x="661.0" y="362"/>
      <point x="708.0" y="292.0"/>
      <point x="728.0" y="292.0" type="qcurve" smooth="yes"/>
      <point x="731.0" y="292.0" type="line" smooth="yes"/>
      <point x="752.0" y="292.0"/>
      <point x="778.0" y="356"/>
      <point x="778.0" y="429" type="qcurve" smooth="yes"/>
      <point x="778.0" y="631" type="line" smooth="yes"/>
      <point x="778.0" y="709"/>
      <point x="752.0" y="754.0"/>
      <point x="731.0" y="754.0" type="qcurve" smooth="yes"/>
      <point x="728.0" y="754.0" type="line" smooth="yes"/>
      <point x="709.0" y="754.0"/>
      <point x="661.0" y="685"/>
    </contour>
  </outline>
</glyph>
<glyph name="q" format="2">
  <advance width="1414"/>
  <unicode hex="0071"/>
  <outline>
    <contour>
      <point x="1309" y="-480" type="line"/>
      <point x="749" y="-480" type="line"/>
      <point x="759" y="1060" type="line"/>
      <point x="1309" y="1060" type="line"/>
    </contour>
    <contour>
      <point x="865.0" y="762.0" type="qcurve" smooth="yes"/>
      <point x="865.0" y="258.0" type="line" smooth="yes"/>
      <point x="865.0" y="177.0"/>
      <point x="642.0" y="-25.0"/>
      <point x="482.0" y="-25.0" type="qcurve" smooth="yes"/>
      <point x="476.0" y="-25.0" type="line" smooth="yes"/>
      <point x="271" y="-25"/>
      <point x="44.0" y="284.0"/>
      <point x="44.0" y="506.0" type="qcurve" smooth="yes"/>
      <point x="44.0" y="541.0" type="line" smooth="yes"/>
      <point x="44.0" y="762.0"/>
      <point x="284.0" y="1083.0"/>
      <point x="489.0" y="1083.0" type="qcurve" smooth="yes"/>
      <point x="495.0" y="1083.0" type="line" smooth="yes"/>
      <point x="687.0" y="1083.0"/>
      <point x="865.0" y="885.0"/>
    </contour>
    <contour>
      <point x="744" y="617.0" type="line" smooth="yes"/>
      <point x="744.0" y="707.0"/>
      <point x="705.0" y="755.0"/>
      <point x="676" y="755.0" type="qcurve" smooth="yes"/>
      <point x="674" y="755.0" type="line" smooth="yes"/>
      <point x="653" y="755.0"/>
      <point x="607.0" y="693.0"/>
      <point x="607.0" y="617.0" type="qcurve" smooth="yes"/>
      <point x="607.0" y="415.0" type="line" smooth="yes"/>
      <point x="607.0" y="343.0"/>
      <point x="654" y="287.0"/>
      <point x="674" y="287.0" type="qcurve" smooth="yes"/>
      <point x="676" y="287.0" type="line" smooth="yes"/>
      <point x="696" y="287.0"/>
      <point x="744" y="341.0"/>
      <point x="744" y="415.0" type="qcurve" smooth="yes"/>
    </contour>
  </outline>
</glyph>
<glyph name="r" format="2">
  <advance width="900"/>
  <unicode hex="0072"/>
  <outline>
    <contour>
      <point x="65" y="0" type="line"/>
      <point x="65" y="1040" type="line"/>
      <point x="628" y="1040" type="line"/>
      <point x="628" y="0" type="line"/>
    </contour>
    <contour>
      <point x="454.0" y="712" type="line"/>
      <point x="530.0" y="856"/>
      <point x="756" y="1075.0"/>
      <point x="852" y="1075.0" type="qcurve" smooth="yes"/>
      <point x="871" y="1075"/>
      <point x="909" y="1071.0"/>
      <point x="920" y="1069.0" type="qcurve"/>
      <point x="920" y="607.0" type="line"/>
      <point x="905" y="611.0"/>
      <point x="859" y="616.0"/>
      <point x="837" y="616.0" type="qcurve" smooth="yes"/>
      <point x="726" y="616"/>
      <point x="541" y="531.0"/>
      <point x="472" y="427.0" type="qcurve"/>
    </contour>
  </outline>
</glyph>
<glyph name="s" format="2">
  <advance width="1216"/>
  <unicode hex="0073"/>
  <outline>
    <contour>
      <point x="642.0" y="316.0" type="line" smooth="yes"/>
      <point x="642.0" y="306.0"/>
      <point x="638.0" y="318"/>
      <point x="492.0" y="360" type="qcurve" smooth="yes"/>
      <point x="282" y="420"/>
      <point x="71.0" y="589.0"/>
      <point x="71.0" y="731.0" type="qcurve" smooth="yes"/>
      <point x="71.0" y="741.0" type="line" smooth="yes"/>
      <point x="71.0" y="894"/>
      <point x="370.0" y="1081"/>
      <point x="610.0" y="1081.0" type="qcurve" smooth="yes"/>
      <point x="653.0" y="1081.0" type="line" smooth="yes"/>
      <point x="908.0" y="1081.0"/>
      <point x="1141" y="917"/>
      <point x="1152.0" y="776.0" type="qcurve" smooth="yes"/>
      <point x="1156.0" y="720.0" type="line"/>
      <point x="667.0" y="720.0" type="line"/>
      <point x="667.0" y="743.0" type="line" smooth="yes"/>
      <point x="667.0" y="761"/>
      <point x="651.0" y="767.0"/>
      <point x="647.0" y="767.0" type="qcurve" smooth="yes"/>
      <point x="616.0" y="767.0" type="line" smooth="yes"/>
      <point x="614" y="767"/>
      <point x="608" y="766"/>
      <point x="608.0" y="753.0" type="qcurve" smooth="yes"/>
      <point x="608.0" y="752.0" type="line" smooth="yes"/>
      <point x="608.0" y="747.0"/>
      <point x="645.0" y="753"/>
      <point x="744.0" y="728" type="qcurve" smooth="yes"/>
      <point x="948.0" y="679"/>
      <point x="1164.0" y="514.0"/>
      <point x="1164.0" y="382.0" type="qcurve" smooth="yes"/>
      <point x="1164.0" y="361.0" type="line" smooth="yes"/>
      <point x="1164.0" y="192.0"/>
      <point x="896.0" y="-26.0"/>
      <point x="629.0" y="-26.0" type="qcurve" smooth="yes"/>
      <point x="626.0" y="-26.0" type="line" smooth="yes"/>
      <point x="345.0" y="-26"/>
      <point x="89.0" y="162"/>
      <point x="86.0" y="280.0" type="qcurve" smooth="yes"/>
      <point x="83.0" y="371.0" type="line"/>
      <point x="656.0" y="373.0" type="line"/>
      <point x="656.0" y="327.0" type="line" smooth="yes"/>
      <point x="656" y="296.0"/>
      <point x="661" y="274.0"/>
      <point x="652.0" y="274.0" type="qcurve" smooth="yes"/>
      <point x="657.0" y="274.0" type="line" smooth="yes"/>
      <point x="646.0" y="274.0"/>
      <point x="642" y="289.0"/>
      <point x="642.0" y="311.0" type="qcurve" smooth="yes"/>
    </contour>
  </outline>
</glyph>
<glyph name="u" format="2">
  <advance width="1365"/>
  <unicode hex="0075"/>
  <outline>
    <contour>
      <point x="1300.0" y="1038.0" type="line"/>
      <point x="1300.0" y="-2.0" type="line"/>
      <point x="750.0" y="-2.0" type="line"/>
      <point x="740.0" y="1038.0" type="line"/>
    </contour>
    <contour>
      <point x="927.0" y="518.0" type="line"/>
      <point x="916.0" y="327.0"/>
      <point x="642.0" y="-27.0"/>
      <point x="428.0" y="-27.0" type="qcurve" smooth="yes"/>
      <point x="238.0" y="-27.0"/>
      <point x="55" y="184.0"/>
      <point x="55.0" y="370.0" type="qcurve" smooth="yes"/>
      <point x="55.0" y="1038.0" type="line"/>
      <point x="616.0" y="1038.0" type="line"/>
      <point x="616.0" y="402.0" type="line" smooth="yes"/>
      <point x="616.0" y="383.0"/>
      <point x="650.0" y="365.0"/>
      <point x="656.0" y="365.0" type="qcurve" smooth="yes"/>
      <point x="699.0" y="365.0"/>
      <point x="825.0" y="493.0"/>
      <point x="887.0" y="626.0" type="qcurve"/>
    </contour>
  </outline>
</glyph>
<glyph name="w" format="2">
  <advance width="1562"/>
  <unicode hex="0077"/>
  <outline>
    <contour>
      <point x="248" y="1" type="line"/>
      <point x="-50" y="1041" type="line"/>
      <point x="435.0" y="1041" type="line"/>
      <point x="541.0" y="628" type="line"/>
      <point x="648.0" y="1041" type="line"/>
      <point x="978" y="1041.0" type="line"/>
      <point x="1089" y="628.0" type="line"/>
      <point x="1204" y="1041.0" type="line"/>
      <point x="1612" y="1041" type="line"/>
      <point x="1310" y="1" type="line"/>
      <point x="890" y="1.0" type="line"/>
      <point x="778" y="401" type="line"/>
      <point x="669" y="1.0" type="line"/>
    </contour>
  </outline>
</glyph>
<glyph name="y" format="2">
  <advance width="1075"/>
  <unicode hex="0079"/>
  <outline>
    <contour>
      <point x="281" y="-9" type="qcurve"/>
      <point x="-89" y="1040" type="line"/>
      <point x="469.0" y="1040" type="line"/>
      <point x="583.0" y="567" type="line"/>
      <point x="708.0" y="1040" type="line"/>
      <point x="1155" y="1040" type="line"/>
      <point x="829" y="33" type="line" smooth="yes"/>
      <point x="728" y="-280"/>
      <point x="378.0" y="-487.0"/>
      <point x="128" y="-487" type="qcurve" smooth="yes"/>
      <point x="5" y="-487"/>
      <point x="-78" y="-471"/>
      <point x="-113" y="-463" type="qcurve"/>
      <point x="-97" y="-66" type="line"/>
      <point x="-74.0" y="-77.0"/>
      <point x="37" y="-104.0"/>
      <point x="119" y="-104" type="qcurve" smooth="yes"/>
      <point x="179" y="-104.0"/>
      <point x="273" y="-59"/>
    </contour>
  </outline>
</glyph>
<glyph name="z" format="2">
  <advance width="986"/>
  <unicode hex="007A"/>
  <outline>
    <contour>
      <point x="978" y="1" type="line"/>
      <point x="27" y="1" type="line"/>
      <point x="22" y="337" type="line"/>
      <point x="333" y="661" type="line"/>
      <point x="28" y="661" type="line"/>
      <point x="28" y="1041" type="line"/>
      <point x="957" y="1041" type="line"/>
      <point x="957" y="726" type="line"/>
      <point x="622" y="377" type="line"/>
      <point x="978" y="377" type="line"/>
    </contour>
  </outline>
</glyph>
